<?xml version="1.0" encoding="utf-8"?>
<!-- Generator: Adobe Illustrator 27.0.0, SVG Export Plug-In . SVG Version: 6.00 Build 0)  -->
<svg version="1.1" id="Layer_1" xmlns="http://www.w3.org/2000/svg" xmlns:xlink="http://www.w3.org/1999/xlink" x="0px" y="0px"
	 viewBox="0 0 131.5 50" style="enable-background:new 0 0 131.5 50;" xml:space="preserve">
<style type="text/css">
	.st0{fill:#4ECDC4;}
	.st1{fill:#F7FFF7;}
</style>
<g>
	<g>
		<path class="st0" d="M11.57,21.37c2.06,12.73-8.19,16.46-3.1,23.42s41.3-17.54,30.75-35.58C28.66-8.84,8.47,2.19,11.57,21.37z"/>
		<g>
			<path class="st1" d="M31.55,33.46v1.92H19.03v-1.92c0-0.35-0.29-0.64-0.64-0.64c-0.35,0-0.64,0.28-0.64,0.64v5.16
				c0,2.62,1.28,4.96,3.71,6.75c1.28,0.94,2.54,1.5,3.19,1.75v2.19c0,0.35,0.29,0.64,0.64,0.64c0.18,0,0.34-0.07,0.45-0.19
				c0.12-0.11,0.19-0.27,0.19-0.45v-2.19c0.65-0.25,1.92-0.81,3.19-1.75c0.46-0.34,0.87-0.7,1.25-1.07
				c1.61-1.61,2.46-3.55,2.46-5.68v-5.16c0-0.35-0.29-0.64-0.64-0.64C31.83,32.83,31.55,33.11,31.55,33.46z M28.38,44.33
				c-1.3,0.97-2.62,1.5-3.1,1.67c-0.48-0.18-1.8-0.71-3.1-1.67c-0.95-0.71-1.69-1.49-2.22-2.35H30.6
				C30.08,42.84,29.34,43.62,28.38,44.33z M31.55,38.63c0,0.73-0.12,1.42-0.34,2.09H19.37c-0.23-0.66-0.34-1.36-0.34-2.09v-1.97
				h12.52V38.63z"/>
			<path class="st1" d="M20.37,30.05c-0.35,0-0.64,0.29-0.64,0.64c0,0.35,0.28,0.64,0.64,0.64l9.84,0c0.18,0,0.34-0.07,0.45-0.19
				c0.12-0.11,0.19-0.27,0.19-0.45c0-0.35-0.29-0.64-0.64-0.64H20.37z"/>
			<path class="st1" d="M28,25.8c0.11-0.11,0.19-0.27,0.19-0.45c0-0.35-0.29-0.64-0.64-0.64h-4.53c-0.35,0-0.64,0.29-0.64,0.64
				c0,0.35,0.29,0.64,0.64,0.64h4.53C27.73,25.99,27.89,25.92,28,25.8z"/>
			<path class="st1" d="M46.1,18.92c-0.82-0.32-1.71-0.49-2.57-0.49H32.79c-0.14-1.31-0.72-2.52-1.66-3.46
				c-0.22-0.22-0.46-0.42-0.71-0.6c0.52-0.17,0.99-0.46,1.38-0.86c0.67-0.67,1.04-1.56,1.04-2.5c0-1.95-1.59-3.54-3.54-3.54l-1.53,0
				V4.89c0-0.35-0.28-0.64-0.64-0.64s-0.64,0.29-0.64,0.64v2.59h-2.41V4.89c0-0.35-0.28-0.64-0.64-0.64c-0.35,0-0.64,0.29-0.64,0.64
				v2.59l-1.53,0c-0.95,0-1.83,0.37-2.5,1.04c-0.67,0.67-1.04,1.56-1.04,2.5c0,0.94,0.37,1.83,1.04,2.5
				c0.4,0.39,0.87,0.68,1.38,0.86c-0.25,0.18-0.49,0.38-0.71,0.6c-0.94,0.94-1.52,2.15-1.66,3.46H7.04c-0.86,0-1.75,0.17-2.57,0.49
				c-0.91,0.36-1.73,0.89-2.42,1.57c-1.97,1.97-2.59,4.93-1.58,7.53c0.68,1.75,2,3.13,3.72,3.88c1.72,0.76,3.63,0.8,5.38,0.11
				c0.05-0.02,0.09-0.04,0.14-0.06c2.05,1.93,5.28,2,7.41,0.08c0.07-0.07,0.15-0.13,0.22-0.2c0.41-0.41,0.76-0.89,1.02-1.42
				l5.46-10.95c0.15-0.19,0.17-0.45,0.06-0.67c-0.1-0.22-0.32-0.36-0.57-0.36h-4.24c0.14-0.97,0.58-1.86,1.28-2.56
				c0.85-0.85,1.99-1.32,3.2-1.32l3.48,0c1.21,0,2.34,0.47,3.2,1.32c0.7,0.7,1.14,1.59,1.28,2.56h-4.24c-0.25,0-0.47,0.15-0.58,0.36
				c-0.11,0.22-0.08,0.48,0.06,0.67l5.46,10.95c0.31,0.62,0.72,1.17,1.24,1.63c2.12,1.91,5.35,1.86,7.41-0.08
				c0.05,0.02,0.09,0.04,0.14,0.06c2.6,1.01,5.55,0.39,7.53-1.58c0.69-0.69,1.22-1.5,1.57-2.42c0.68-1.75,0.64-3.66-0.11-5.38
				C49.23,20.92,47.85,19.6,46.1,18.92z M4.71,30.74c-1.41-0.62-2.49-1.75-3.05-3.18c-0.83-2.13-0.32-4.55,1.29-6.16
				c0.56-0.56,1.23-1,1.98-1.29c0.67-0.26,1.4-0.4,2.1-0.4h14.61L9.52,30.65c-0.14,0.07-0.27,0.12-0.4,0.18
				C7.69,31.39,6.12,31.35,4.71,30.74z M17.23,29.85c-0.24,0.48-0.55,0.89-0.95,1.25c-1.57,1.4-3.9,1.42-5.48,0.12l10.45-9.43
				L17.23,29.85z M29.29,8.74c0.6,0,1.17,0.24,1.6,0.66c0.43,0.43,0.66,1,0.66,1.6c0,0.61-0.24,1.17-0.66,1.6
				c-0.43,0.43-1,0.66-1.6,0.66l-1.53,0V8.75L29.29,8.74z M26.49,8.75v4.53l-2.41,0V8.75H26.49z M19.02,11.01
				c0-0.6,0.24-1.17,0.66-1.6c0.43-0.43,1-0.66,1.6-0.66l1.53,0v4.53l-1.53,0c-0.61,0-1.17-0.24-1.6-0.66
				C19.25,12.18,19.02,11.61,19.02,11.01z M48.81,23.15c0.62,1.41,0.65,2.97,0.09,4.4c-0.29,0.75-0.72,1.42-1.29,1.98
				c-1.62,1.62-4.03,2.12-6.16,1.29c-0.13-0.05-0.27-0.11-0.4-0.18l-5.69-5.14c-0.26-0.24-0.66-0.22-0.9,0.05
				c-0.24,0.26-0.21,0.66,0.05,0.9l5.27,4.76c-1.59,1.31-3.92,1.28-5.48-0.12c-0.4-0.36-0.71-0.76-0.95-1.25l-4.02-8.06l3.28,2.96
				c0.25,0.23,0.64,0.22,0.88-0.02l0.02-0.02c0.24-0.26,0.22-0.66-0.05-0.9l-4.55-4.1h14.61c0.7,0,1.43,0.14,2.1,0.4
				C47.07,20.66,48.2,21.74,48.81,23.15z"/>
		</g>
	</g>
	<g>
		<path class="st1" d="M57.55,14.53V7.54h-2.72V6.57h6.57v0.96h-2.75v6.99H57.55z"/>
		<path class="st1" d="M63.1,14.53V6.57h1.1v3.41h4.32V6.57h1.11v7.95h-1.11v-3.58H64.2v3.58H63.1z"/>
		<path class="st1" d="M72.09,14.53V6.57h6.12v0.95h-5.02v2.46h4.51v0.95h-4.51v2.64h5.09v0.95H72.09z"/>
		<path class="st1" d="M57.28,43V18.89h5.24v9.56h10.69v-9.56h5.24V43h-5.24V32.88H62.52V43H57.28z"/>
		<path class="st1" d="M84.07,21.8v-4.22h4.89v4.22H84.07z M84.07,43V24.51h4.89V43H84.07z"/>
		<path class="st1" d="M98.94,43l-6.89-18.49h5.17l2.71,7.8c0.14,0.4,0.31,0.93,0.51,1.58c0.2,0.66,0.4,1.35,0.62,2.07
			c0.21,0.73,0.39,1.38,0.53,1.97h0.18c0.16-0.54,0.34-1.17,0.53-1.88c0.19-0.71,0.38-1.41,0.58-2.07c0.2-0.67,0.37-1.22,0.51-1.67
			l2.71-7.8H111L104.07,43H98.94z"/>
		<path class="st1" d="M122.49,43.43c-2.04,0-3.75-0.35-5.13-1.04c-1.38-0.69-2.43-1.75-3.13-3.18c-0.7-1.43-1.05-3.25-1.05-5.45
			c0-2.23,0.35-4.05,1.05-5.47c0.7-1.42,1.74-2.47,3.11-3.16c1.37-0.69,3.05-1.04,5.04-1.04c1.87,0,3.46,0.33,4.75,1
			s2.26,1.7,2.92,3.09c0.66,1.4,0.98,3.19,0.98,5.4v1.27h-12.9c0.05,1.08,0.22,1.99,0.51,2.74c0.29,0.75,0.75,1.31,1.37,1.67
			c0.62,0.36,1.45,0.54,2.48,0.54c0.56,0,1.07-0.07,1.53-0.21s0.85-0.35,1.18-0.63c0.33-0.28,0.58-0.63,0.77-1.05
			c0.19-0.42,0.28-0.9,0.28-1.44h4.78c0,1.17-0.21,2.19-0.63,3.06c-0.42,0.87-1.01,1.59-1.76,2.16s-1.65,1.01-2.69,1.3
			C124.91,43.28,123.76,43.43,122.49,43.43z M118.2,31.75h7.8c0-0.7-0.09-1.31-0.26-1.83c-0.18-0.51-0.42-0.94-0.72-1.27
			c-0.31-0.33-0.67-0.57-1.11-0.72c-0.43-0.15-0.92-0.23-1.46-0.23c-0.89,0-1.63,0.15-2.23,0.44c-0.6,0.29-1.05,0.74-1.37,1.34
			C118.54,30.08,118.32,30.84,118.2,31.75z"/>
	</g>
</g>
</svg>
